<?xml version="1.0" encoding="UTF-8"?>
<svg id="Barbas" xmlns="http://www.w3.org/2000/svg" viewBox="0 0 500.25 500.25">
  <defs>
    <style>
      .cls-1 {
        opacity: .65;
      }

      .cls-1, .cls-2 {
        fill: #f3eee3;
      }

      .cls-3 {
        fill: none;
      }

      .cls-4 {
        fill: #8fa67a;
      }
    </style>
  </defs>
  <path class="cls-2" d="M268,146.54c-.54,32.14-45.26,32.14-45.79,0,2.23-38.11,43.57-38.1,45.79,0Z"/>
  <path class="cls-2" d="M248.5,476.18c-.55,2.59-.97,3.08-1.26,3.08-3.9-.05-5.58-91.7-5.96-198.93-.1-27.85-.2-74.82,3.66-101.93.06-.46.98-.93,1.37-.88,0,0,.57.1.96,1.2,1.54,4.34,1.52,264.1,1.53,267.54.04,8.98,0,11.77-.07,17.35-.05,4.22-.14,8.43-.14,8.43-.03,1.64-.07,3.05-.09,4.14Z"/>
  <path class="cls-3" d="M310.56,117.11c.05.09.1.18.15.26.17-.21-.24-.66-.15-.26Z"/>
  <path class="cls-1" d="M251.17,195.46c13.17-10.47,38.72-41.26,30.54-67.53.71,31.42-17.02,47.95-30.54,67.53Z"/>
  <path class="cls-1" d="M271.59,118.37c11.34-14.85,9.8-42.96.75-57.74,6.92,23.16,6.88,35.52-.75,57.74Z"/>
  <path class="cls-1" d="M282.29,99.23c.37,3.22.49,7.02.03,11.23-.88,8.11-3.56,14.67-5.98,19.25,8.53-7.08,10.6-21.15,5.95-30.48Z"/>
  <path class="cls-3" d="M296.29,66.26s-.04,0-.06,0c-.12-.02-.26-.03-.41-.01.16.13.14.34.04.53l.71-.48s.06,0,.1-.01c.11-.02.2-.09.29-.25l-.36.24c-.1,0-.2,0-.3-.01Z"/>
  <path class="cls-3" d="M226.98,106.52s-.04,0-.06,0c-.12-.02-.26-.03-.41-.01.16.13.14.34.04.53l.71-.48s.06,0,.1-.01c.11-.02.2-.09.29-.25l-.36.24c-.1,0-.2,0-.3-.01Z"/>
  <path class="cls-3" d="M228.98,104.52s-.04,0-.06,0c-.12-.02-.26-.03-.41-.01.16.13.14.34.04.53l.71-.48s.06,0,.1-.01c.11-.02.2-.09.29-.25l-.36.24c-.1,0-.2,0-.3-.01Z"/>
  <path class="cls-2" d="M276.71,136.12c-.23-9.46-3.98-16.7-11.38-23.69-29.48-22.92-59.37,9.44-49.69,39.75,5.67,14.15,21.96,26.77,25.87,41.96,1.87-4.52-2.22-11.44-5.19-15.25-6.24-10-13.46-15.7-17.28-27.04-4.57-12.92,3.02-51.14,34.98-41.65,14.34,6.98,20.67,18.95,18.53,32.16-.83,15.25-14.72,29.14-19.71,41.37,3.87-3.43,26.43-33.51,23.87-47.61Z"/>
  <g>
    <path class="cls-1" d="M273.92,217.03c-12.92,10.36-23.4,25.27-19.59,42.88,4.27-24.13,18.37-32.66,34.57-48.54,12.19-13.46,19.87-32.09,18.32-50.43-3.12,22.36-15.29,42.73-33.3,56.09Z"/>
    <path class="cls-1" d="M313.34,172.98c-.42-3.34-1.68-10.28-2.79-13.43,5.12,33.01-2.14,60.04-31.15,78.75-14.32,10.08-29.39,25.5-26.39,44.44,9-23.58,14.94-28.37,35.31-43.78,19.76-16.57,28.2-39.75,25.01-65.98Z"/>
  </g>
  <path class="cls-1" d="M253.66,331.58c-.17.75-.37.61-.81.22-2.37-50.66,52.25-46.93,72.17-80.83,7.5-12.52,8.04-27.78,10.06-41.76,2.25-.37.65,6.47.98,7.65.89,76.55-71.16,55.84-82.39,114.72Z"/>
  <path class="cls-1" d="M254.15,354.03c-.22.62-.52,1.97-1.1,2.73-2.4-22.26,17.41-41.35,36.14-50.48,16.2-7.38,33.82-17.03,43.44-32.52,5.92-9.32,8.04-17.18,8.87-28.14.05-.7.21-1.38,1.26-1.51,1.14,27.6-17.09,50.59-40.83,62.73-21.62,10.34-39.62,23.71-47.77,47.2Z"/>
  <path class="cls-1" d="M255.36,297.55l-2.36,7.99c-.58-3.23-.33-6.23-.25-9.35.13-4.78,1.35-9.1,3.5-13.33,1.62-3.19,3.06-6.39,5.62-8.97l8.09-8.15c4.75-4.3,9.86-7.78,15.33-11.07l9.09-5.47c4.48-2.7,8.41-5.85,12.37-9.25l3.39-3.48c3.03-3.63,6.03-7.18,8.03-11.53,1.83-3.98,3.21-8.01,4.31-12.28,2.02-7.81,1.72-15.66-.02-23.68,1.34.18,1.36,1.47,1.68,2.43,1.03,3.13,1.58,6.21,1.58,9.48l-.02,6.89c-.03,11.78-5.88,25.69-14.08,34.02l-3.85,3.91c-2.55,2.59-5.35,4.67-8.41,6.71l-13.52,9.01c-4.42,2.95-8.61,5.84-12.6,9.34l-3.73,3.73c-6.49,6.49-11.47,14.05-14.14,23.07Z"/>
  <path class="cls-1" d="M253.74,379.35c3.06-17.03,20.35-28.65,36.21-32.91,25.09-4.97,44.25-1.92,53.26-30.82-6.4,52.76-71.4,10.88-89.54,76.82l.06-13.09Z"/>
  <path class="cls-1" d="M256.56,221.79c-2.5,4.21-3.17,8.17-5.3,12.14-3.08-42.69,60.98-40,49.13-109.81,9.32,21.65,1.8,47.24-12.5,64.93-9.73,11.01-24.26,19.59-31.32,32.74Z"/>
  <g>
    <path class="cls-3" d="M255.37,80.29s0,.02.01.03l.42.56c-.45-2.32-.76-3.9-.75-3.82l.31,3.22Z"/>
    <path class="cls-3" d="M259.31,84.62s0,.02.01.03l.42.56c-.45-2.32-.76-3.9-.75-3.82l.31,3.22Z"/>
    <g>
      <path class="cls-3" d="M265.27,94.28s.02.07.02.1c0-.01,0-.02,0-.03l-.03-.07Z"/>
      <path class="cls-3" d="M265.27,94.28c-.1-.37-.23-.73-.45-1.06l.45,1.06Z"/>
      <g>
        <path class="cls-3" d="M261.94,101.61c-.1-.01.05.22.29.54-.15-.35-.26-.58-.29-.54Z"/>
        <path class="cls-3" d="M267.02,94.28c-.1-.37-.23-.73-.45-1.06l.45,1.06Z"/>
        <path class="cls-3" d="M267.02,94.28s.02.07.02.1c0-.01,0-.02,0-.03l-.03-.07Z"/>
        <path class="cls-3" d="M264.55,105.27l.17.24c-.02-.08-.08-.16-.17-.24Z"/>
      </g>
    </g>
  </g>
  <path class="cls-1" d="M253.7,406.18c-.39.89-.64,2.4-1.33,2.7.35-3.57-.26-8.15,1.82-11.28,18.57-31.21,67.38-18.62,83.29-52.55-3.44,16.14-20.67,24.45-34.68,30.01-18.54,5.71-40.6,11.63-49.1,31.12Z"/>
  <path class="cls-1" d="M254.56,366.34c-1.75,2.2-2.4,2.69-1.88,1.3,1.09-2.54,2.27-4.52,4.26-7.73,4.16-6.69,9.79-13.35,16.07-18.28,27.88-20.88,47.92-13.23,66.58-50.59,2.61-4.78,4.71-7.8,2.43-.59-1.44,4.36-4.1,10.48-6.86,14.93-13.94,24.09-41.07,24.01-61.09,39.41-7.5,5.53-14.02,14.41-19.44,21.45l-.07.09Z"/>
  <path class="cls-4" d="M239.81,408.09c-1.9-18.07-18.31-31.77-34.88-36.86-13.98-5-33.28-7.69-39.57-23.15,3.67,16.21,23.02,21.32,36.71,26.57,14.67,5.02,26.77,13.9,33.72,27.99,1.3,2.66,1.91,4.27,4.03,6.09.16.13.28.19.24.08.03.05-.15-.4-.15-.39"/>
  <path class="cls-4" d="M252.6,163.27c-25.19,9.51-38.75-28.51-12.17-35.48,21.74-3.63,34.64,26.54,12.17,35.48Z"/>
  <g>
    <path class="cls-3" d="M238.71,385c.1.22.26.57.35.81-.1-.28-.02-.87-.35-.81Z"/>
    <path class="cls-4" d="M238.33,389.84c.08.31-.11-.36-.39-1.32.02.04,0,0,0-.07.02.04-.24-.72-.16-.54-3.66-39.93-57.58-28.21-73.82-57.06,9.8,29.54,54.97,19.83,70.29,53.48,1.13,2.18,5.98,10.69,4.09,5.51Z"/>
  </g>
  <path class="cls-1" d="M245.17,103.29c-8.98-8.97-5.49-39.66-1.49-53.96,1.16-4.13,2.5-12.51,7.45-13.52-1.41,3.44-1.89,8.71-1.76,12.3.14,3.81.94,5.32,1.6,9.21,1.84,10.96,1.05,36.89-5.8,45.97Z"/>
  <path class="cls-4" d="M244.91,101.15c-3.25-11.88-3.32-46.7,3.22-60.38.31-.31-.2,3.3-.16,2.97-.88,6.52.45,14.42.61,20.14.22,7.66-1.41,29.94-3.68,37.28Z"/>
  <path class="cls-1" d="M254.42,105.94c11.34-14.85,9.8-42.96.75-57.74,6.92,23.16,6.88,35.52-.75,57.74Z"/>
  <path class="cls-4" d="M237.13,354.44c.23.62.85,1.56,1.43,2.31,2.4-22.26-17.41-41.35-36.14-50.48-16.2-7.38-33.82-17.03-43.44-32.52-5.92-9.32-8.04-17.18-8.87-28.14-.05-.7-.21-1.38-1.26-1.51-1.14,27.6,17.09,50.59,40.83,62.73,20.99,10,40.69,24.21,47.44,47.62Z"/>
  <path class="cls-4" d="M236.85,331.24c.17.75.37.61.81.22,2.37-50.66-52.25-46.93-72.17-80.83-7.5-12.52-8.04-27.78-10.06-41.76-2.25-.37-.65,6.47-.98,7.65-.89,76.55,71.16,55.84,82.39,114.72Z"/>
  <path class="cls-4" d="M234.83,366.34c1.75,2.2,2.4,2.69,1.88,1.3-1.09-2.54-2.27-4.52-4.26-7.73-4.16-6.69-9.79-13.35-16.07-18.28-27.88-20.88-47.92-13.23-66.58-50.59-2.61-4.78-4.71-7.8-2.43-.59,1.44,4.36,4.1,10.48,6.86,14.93,13.94,24.09,41.07,24.01,61.09,39.41,7.5,5.53,14.02,14.41,19.44,21.45l.07.09Z"/>
  <path class="cls-4" d="M234.29,298.56l2.36,7.99c.58-3.23.33-6.23.25-9.35-.13-4.78-1.35-9.1-3.5-13.33-1.62-3.19-3.06-6.39-5.62-8.97l-8.09-8.15c-4.75-4.3-9.86-7.78-15.33-11.07l-9.09-5.47c-4.48-2.7-8.41-5.85-12.37-9.25l-3.39-3.48c-3.03-3.63-6.03-7.18-8.03-11.53-1.83-3.98-3.21-8.01-4.31-12.28-2.02-7.81-1.72-15.66.02-23.68-1.34.18-1.36,1.47-1.68,2.43-1.03,3.13-1.58,6.21-1.58,9.48l.02,6.89c.03,11.78,5.88,25.69,14.08,34.02l3.85,3.91c2.55,2.59,5.35,4.67,8.41,6.71l13.52,9.01c4.42,2.95,8.61,5.84,12.6,9.34l3.73,3.73c6.49,6.49,11.47,14.05,14.14,23.07Z"/>
  <path class="cls-4" d="M216.68,217.03c12.92,10.36,23.4,25.27,19.59,42.88-4.27-24.13-18.37-32.66-34.57-48.54-12.19-13.46-19.87-32.09-18.32-50.43,3.12,22.36,15.29,42.73,33.3,56.09Z"/>
  <path class="cls-4" d="M177.26,172.98c.42-3.34,1.68-10.28,2.79-13.43-5.12,33.01,2.14,60.04,31.15,78.75,14.23,10.03,29.56,25.63,26.39,44.44-9-23.58-14.94-28.37-35.31-43.78-19.76-16.57-28.2-39.75-25.01-65.98Z"/>
  <path class="cls-4" d="M208.44,90.28c-37.1,77.55,24.76,80,29.79,126.19.01.73-.06,1.25-.27,1.27-27.12-46.45-71.2-70.49-29.53-127.48v.02Z"/>
  <path class="cls-4" d="M233.2,223.79c2.5,4.21,3.17,8.17,5.3,12.14,1.33-9.02-1.14-14.83-5.63-21.68-4.57-9.08-14.98-16.37-22.9-22.43-17.59-16.25-25.6-42.62-20.6-65.7-4.79,10.53-4.63,18.84-3.05,30.05,1.32,12.84,7.6,24.92,15.56,34.88,9.73,11.01,24.26,19.59,31.32,32.74Z"/>
  <path class="cls-4" d="M239.43,196.38c-13.17-10.47-38.72-41.26-30.54-67.53-.71,31.42,17.02,47.95,30.54,67.53Z"/>
  <path class="cls-4" d="M220.59,118.37c-11.34-14.85-9.8-42.96-.75-57.74-6.92,23.16-6.88,35.52.75,57.74Z"/>
  <path class="cls-4" d="M214.17,130.91c-2.42-5.22-5.1-12.7-5.98-21.95-.46-4.81-.33-9.13.03-12.81-4.65,10.64-2.58,26.68,5.95,34.76Z"/>
  <path class="cls-4" d="M237.11,105.27c-11.34-14.85-9.8-42.96-.75-57.74-6.92,23.16-6.88,35.52.75,57.74Z"/>
  <path class="cls-4" d="M225.94,59.66c.85-2.13,3.03-7.2,3.21-7.14.16.06-12.95,34.59.5,55-2.65-3.06-4.2-5.83-5.09-7.65-8.08-16.56-.63-35.19,1.38-40.22Z"/>
  <path class="cls-1" d="M267.33,61.54c-.85-2.13-3.03-7.2-3.21-7.14-.16.06,12.95,34.59-.5,55,2.65-3.06,4.2-5.83,5.09-7.65,8.08-16.56.63-35.19-1.38-40.22Z"/>
  <path class="cls-1" d="M280.86,89.28c37.1,77.55-24.76,80-29.79,126.19-.01.73.06,1.25.27,1.27,27.12-46.45,71.2-70.49,29.53-127.48v.02Z"/>
</svg>